<?xml version="1.0" encoding="utf-8"?>
<!-- Generator: Adobe Illustrator 21.0.2, SVG Export Plug-In . SVG Version: 6.00 Build 0)  -->
<svg version="1.1" id="Layer_1" xmlns="http://www.w3.org/2000/svg" xmlns:xlink="http://www.w3.org/1999/xlink" x="0px" y="0px"
	 viewBox="0 0 100 100" style="enable-background:new 0 0 100 100;" xml:space="preserve">
<style type="text/css">
	.st0{fill:#FF714B;}
	.st1{fill:#540045;}
</style>
<path class="st0" d="M51.2,52.6H38.9c-0.2,0-0.4,0.2-0.4,0.4v2.3c0,0.2,0.2,0.4,0.4,0.4h12.3c0.2,0,0.4-0.2,0.4-0.4V53
	C51.6,52.8,51.4,52.6,51.2,52.6z"/>
<path class="st0" d="M58.6,46.7H38.9c-0.2,0-0.4,0.2-0.4,0.4v2.3c0,0.2,0.2,0.4,0.4,0.4h19.7c0.2,0,0.4-0.2,0.4-0.4v-2.3
	C59,46.9,58.8,46.7,58.6,46.7z"/>
<path class="st1" d="M88.1,24L53.5,4c-2.2-1.3-5-1.3-7.2,0L11.6,24C9.4,25.3,8,27.7,8,30.2v40c0,2.6,1.4,5,3.6,6.2l34.6,20
	c1.1,0.6,2.3,1,3.6,1s2.5-0.3,3.6-1l34.6-20c2.2-1.3,3.6-3.7,3.6-6.2v-40C91.7,27.7,90.3,25.3,88.1,24z M69.6,64.2
	c0.3,0.2,0.4,0.5,0.4,0.8s-0.3,0.6-0.6,0.6c-1.3,0.3-2.5,0.5-3.6,0.5c-2.9,0-4.9-1-6.1-1.8c-3.2,1.7-7,2.7-11,2.7
	C37,67,27.4,58.6,27.4,48.3c0-10.4,9.5-18.7,21.3-18.7S70,38,70,48.3c0,4.2-1.6,8.1-4.2,11.2C67.1,62.6,69.6,64.2,69.6,64.2z"/>
<path class="st0" d="M58.6,40.9H38.9c-0.2,0-0.4,0.2-0.4,0.4v2.3c0,0.2,0.2,0.4,0.4,0.4h19.7c0.2,0,0.4-0.2,0.4-0.4v-2.3
	C59,41,58.8,40.9,58.6,40.9z"/>
</svg>
